<svg width="178" height="28" viewBox="0 0 178 28" fill="none" xmlns="http://www.w3.org/2000/svg">
<path d="M6.4667 21.2C5.25003 21.2 4.1667 20.9917 3.2167 20.575C2.2667 20.1583 1.5167 19.5917 0.966699 18.875C0.416699 18.1417 0.108366 17.325 0.0416993 16.425H4.2667C4.3167 16.9083 4.5417 17.3 4.9417 17.6C5.3417 17.9 5.83337 18.05 6.4167 18.05C6.95003 18.05 7.35837 17.95 7.6417 17.75C7.9417 17.5333 8.0917 17.2583 8.0917 16.925C8.0917 16.525 7.88337 16.2333 7.4667 16.05C7.05003 15.85 6.37503 15.6333 5.4417 15.4C4.4417 15.1667 3.60837 14.925 2.9417 14.675C2.27503 14.4083 1.70003 14 1.2167 13.45C0.733366 12.8833 0.491699 12.125 0.491699 11.175C0.491699 10.375 0.708366 9.65 1.1417 9C1.5917 8.33333 2.2417 7.80833 3.0917 7.425C3.95837 7.04167 4.98337 6.85 6.1667 6.85C7.9167 6.85 9.2917 7.28333 10.2917 8.15C11.3084 9.01667 11.8917 10.1667 12.0417 11.6H8.0917C8.02503 11.1167 7.80837 10.7333 7.4417 10.45C7.0917 10.1667 6.62503 10.025 6.0417 10.025C5.5417 10.025 5.15837 10.125 4.8917 10.325C4.62503 10.5083 4.4917 10.7667 4.4917 11.1C4.4917 11.5 4.70003 11.8 5.1167 12C5.55003 12.2 6.2167 12.4 7.1167 12.6C8.15003 12.8667 8.9917 13.1333 9.6417 13.4C10.2917 13.65 10.8584 14.0667 11.3417 14.65C11.8417 15.2167 12.1 15.9833 12.1167 16.95C12.1167 17.7667 11.8834 18.5 11.4167 19.15C10.9667 19.7833 10.3084 20.2833 9.4417 20.65C8.5917 21.0167 7.60003 21.2 6.4667 21.2ZM28.5071 7.05V21H24.2321V19.1C23.7988 19.7167 23.2071 20.2167 22.4571 20.6C21.7238 20.9667 20.9071 21.15 20.0071 21.15C18.9405 21.15 17.9988 20.9167 17.1821 20.45C16.3655 19.9667 15.7321 19.275 15.2821 18.375C14.8321 17.475 14.6071 16.4167 14.6071 15.2V7.05H18.8571V14.625C18.8571 15.5583 19.0988 16.2833 19.5821 16.8C20.0655 17.3167 20.7155 17.575 21.5321 17.575C22.3655 17.575 23.0238 17.3167 23.5071 16.8C23.9905 16.2833 24.2321 15.5583 24.2321 14.625V7.05H28.5071ZM35.8528 9.025C36.2528 8.375 36.8278 7.85 37.5778 7.45C38.3278 7.05 39.1862 6.85 40.1528 6.85C41.3028 6.85 42.3445 7.14167 43.2778 7.725C44.2112 8.30833 44.9445 9.14167 45.4778 10.225C46.0278 11.3083 46.3028 12.5667 46.3028 14C46.3028 15.4333 46.0278 16.7 45.4778 17.8C44.9445 18.8833 44.2112 19.725 43.2778 20.325C42.3445 20.9083 41.3028 21.2 40.1528 21.2C39.1695 21.2 38.3112 21.0083 37.5778 20.625C36.8445 20.225 36.2695 19.7 35.8528 19.05V21H31.5778V2.5H35.8528V9.025ZM41.9528 14C41.9528 12.9333 41.6528 12.1 41.0528 11.5C40.4695 10.8833 39.7445 10.575 38.8778 10.575C38.0278 10.575 37.3028 10.8833 36.7028 11.5C36.1195 12.1167 35.8278 12.9583 35.8278 14.025C35.8278 15.0917 36.1195 15.9333 36.7028 16.55C37.3028 17.1667 38.0278 17.475 38.8778 17.475C39.7278 17.475 40.4528 17.1667 41.0528 16.55C41.6528 15.9167 41.9528 15.0667 41.9528 14ZM50.6706 5.6C49.9206 5.6 49.3039 5.38333 48.8206 4.95C48.3539 4.5 48.1206 3.95 48.1206 3.3C48.1206 2.63333 48.3539 2.08333 48.8206 1.65C49.3039 1.2 49.9206 0.974999 50.6706 0.974999C51.4039 0.974999 52.0039 1.2 52.4706 1.65C52.9539 2.08333 53.1956 2.63333 53.1956 3.3C53.1956 3.95 52.9539 4.5 52.4706 4.95C52.0039 5.38333 51.4039 5.6 50.6706 5.6ZM52.8206 22.8C52.8206 24.5167 52.3873 25.75 51.5206 26.5C50.6539 27.2667 49.4456 27.65 47.8956 27.65H46.2206V24.025H47.2456C47.7123 24.025 48.0456 23.9333 48.2456 23.75C48.4456 23.5667 48.5456 23.2667 48.5456 22.85V7.05H52.8206V22.8ZM69.0442 13.8C69.0442 14.2 69.0192 14.6167 68.9692 15.05H59.2942C59.3609 15.9167 59.6359 16.5833 60.1192 17.05C60.6192 17.5 61.2276 17.725 61.9442 17.725C63.0109 17.725 63.7526 17.275 64.1692 16.375H68.7192C68.4859 17.2917 68.0609 18.1167 67.4442 18.85C66.8442 19.5833 66.0859 20.1583 65.1692 20.575C64.2526 20.9917 63.2276 21.2 62.0942 21.2C60.7276 21.2 59.5109 20.9083 58.4442 20.325C57.3776 19.7417 56.5442 18.9083 55.9442 17.825C55.3442 16.7417 55.0442 15.475 55.0442 14.025C55.0442 12.575 55.3359 11.3083 55.9192 10.225C56.5192 9.14167 57.3526 8.30833 58.4192 7.725C59.4859 7.14167 60.7109 6.85 62.0942 6.85C63.4442 6.85 64.6442 7.13333 65.6942 7.7C66.7442 8.26667 67.5609 9.075 68.1442 10.125C68.7442 11.175 69.0442 12.4 69.0442 13.8ZM64.6692 12.675C64.6692 11.9417 64.4192 11.3583 63.9192 10.925C63.4192 10.4917 62.7942 10.275 62.0442 10.275C61.3276 10.275 60.7192 10.4833 60.2192 10.9C59.7359 11.3167 59.4359 11.9083 59.3192 12.675H64.6692ZM70.4495 14.025C70.4495 12.575 70.7412 11.3083 71.3245 10.225C71.9245 9.14167 72.7495 8.30833 73.7995 7.725C74.8662 7.14167 76.0828 6.85 77.4495 6.85C79.1995 6.85 80.6578 7.30833 81.8245 8.225C83.0078 9.14167 83.7828 10.4333 84.1495 12.1H79.5995C79.2162 11.0333 78.4745 10.5 77.3745 10.5C76.5912 10.5 75.9662 10.8083 75.4995 11.425C75.0328 12.025 74.7995 12.8917 74.7995 14.025C74.7995 15.1583 75.0328 16.0333 75.4995 16.65C75.9662 17.25 76.5912 17.55 77.3745 17.55C78.4745 17.55 79.2162 17.0167 79.5995 15.95H84.1495C83.7828 17.5833 83.0078 18.8667 81.8245 19.8C80.6412 20.7333 79.1828 21.2 77.4495 21.2C76.0828 21.2 74.8662 20.9083 73.7995 20.325C72.7495 19.7417 71.9245 18.9083 71.3245 17.825C70.7412 16.7417 70.4495 15.475 70.4495 14.025ZM94.2112 17.375V21H92.0362C90.4862 21 89.2779 20.625 88.4112 19.875C87.5446 19.1083 87.1112 17.8667 87.1112 16.15V10.6H85.4112V7.05H87.1112V3.65H91.3862V7.05H94.1862V10.6H91.3862V16.2C91.3862 16.6167 91.4862 16.9167 91.6862 17.1C91.8862 17.2833 92.2196 17.375 92.6862 17.375H94.2112Z" fill="black"/>
<path d="M100.867 9.025C101.284 8.375 101.859 7.85 102.592 7.45C103.326 7.05 104.184 6.85 105.167 6.85C106.317 6.85 107.359 7.14167 108.292 7.725C109.226 8.30833 109.959 9.14167 110.492 10.225C111.042 11.3083 111.317 12.5667 111.317 14C111.317 15.4333 111.042 16.7 110.492 17.8C109.959 18.8833 109.226 19.725 108.292 20.325C107.359 20.9083 106.317 21.2 105.167 21.2C104.201 21.2 103.342 21 102.592 20.6C101.859 20.2 101.284 19.6833 100.867 19.05V27.65H96.5925V7.05H100.867V9.025ZM106.967 14C106.967 12.9333 106.667 12.1 106.067 11.5C105.484 10.8833 104.759 10.575 103.892 10.575C103.042 10.575 102.317 10.8833 101.717 11.5C101.134 12.1167 100.842 12.9583 100.842 14.025C100.842 15.0917 101.134 15.9333 101.717 16.55C102.317 17.1667 103.042 17.475 103.892 17.475C104.742 17.475 105.467 17.1667 106.067 16.55C106.667 15.9167 106.967 15.0667 106.967 14ZM117.835 2.5V21H113.56V2.5H117.835ZM120.083 14C120.083 12.5667 120.35 11.3083 120.883 10.225C121.433 9.14167 122.175 8.30833 123.108 7.725C124.042 7.14167 125.083 6.85 126.233 6.85C127.217 6.85 128.075 7.05 128.808 7.45C129.558 7.85 130.133 8.375 130.533 9.025V7.05H134.808V21H130.533V19.025C130.117 19.675 129.533 20.2 128.783 20.6C128.05 21 127.192 21.2 126.208 21.2C125.075 21.2 124.042 20.9083 123.108 20.325C122.175 19.725 121.433 18.8833 120.883 17.8C120.35 16.7 120.083 15.4333 120.083 14ZM130.533 14.025C130.533 12.9583 130.233 12.1167 129.633 11.5C129.05 10.8833 128.333 10.575 127.483 10.575C126.633 10.575 125.908 10.8833 125.308 11.5C124.725 12.1 124.433 12.9333 124.433 14C124.433 15.0667 124.725 15.9167 125.308 16.55C125.908 17.1667 126.633 17.475 127.483 17.475C128.333 17.475 129.05 17.1667 129.633 16.55C130.233 15.9333 130.533 15.0917 130.533 14.025ZM146.401 6.9C148.034 6.9 149.334 7.43333 150.301 8.5C151.284 9.55 151.776 11 151.776 12.85V21H147.526V13.425C147.526 12.4917 147.284 11.7667 146.801 11.25C146.318 10.7333 145.668 10.475 144.851 10.475C144.034 10.475 143.384 10.7333 142.901 11.25C142.418 11.7667 142.176 12.4917 142.176 13.425V21H137.901V7.05H142.176V8.9C142.609 8.28333 143.193 7.8 143.926 7.45C144.659 7.08333 145.484 6.9 146.401 6.9ZM167.897 13.8C167.897 14.2 167.872 14.6167 167.822 15.05H158.147C158.213 15.9167 158.488 16.5833 158.972 17.05C159.472 17.5 160.08 17.725 160.797 17.725C161.863 17.725 162.605 17.275 163.022 16.375H167.572C167.338 17.2917 166.913 18.1167 166.297 18.85C165.697 19.5833 164.938 20.1583 164.022 20.575C163.105 20.9917 162.08 21.2 160.947 21.2C159.58 21.2 158.363 20.9083 157.297 20.325C156.23 19.7417 155.397 18.9083 154.797 17.825C154.197 16.7417 153.897 15.475 153.897 14.025C153.897 12.575 154.188 11.3083 154.772 10.225C155.372 9.14167 156.205 8.30833 157.272 7.725C158.338 7.14167 159.563 6.85 160.947 6.85C162.297 6.85 163.497 7.13333 164.547 7.7C165.597 8.26667 166.413 9.075 166.997 10.125C167.597 11.175 167.897 12.4 167.897 13.8ZM163.522 12.675C163.522 11.9417 163.272 11.3583 162.772 10.925C162.272 10.4917 161.647 10.275 160.897 10.275C160.18 10.275 159.572 10.4833 159.072 10.9C158.588 11.3167 158.288 11.9083 158.172 12.675H163.522ZM177.927 17.375V21H175.752C174.202 21 172.994 20.625 172.127 19.875C171.26 19.1083 170.827 17.8667 170.827 16.15V10.6H169.127V7.05H170.827V3.65H175.102V7.05H177.902V10.6H175.102V16.2C175.102 16.6167 175.202 16.9167 175.402 17.1C175.602 17.2833 175.935 17.375 176.402 17.375H177.927Z" fill="#FFC727"/>
</svg>
